<svg width="184" height="80" viewBox="0 0 184 80" fill="none" xmlns="http://www.w3.org/2000/svg">
<g clip-path="url(#clip0_1_8612)">
<g clip-path="url(#clip1_1_8612)">
<g clip-path="url(#clip2_1_8612)">
<path fill-rule="evenodd" clip-rule="evenodd" d="M113.636 63.0124C102.991 70.8299 87.5626 75.0007 74.2789 75.0007C55.653 75.0007 38.8849 68.1367 26.1992 56.7204C25.2025 55.8226 26.0955 54.5992 27.2915 55.2983C40.9819 63.2349 57.9095 68.0095 75.3952 68.0095C87.1879 68.0095 100.161 65.5785 112.089 60.5337C113.891 59.7711 115.398 61.7095 113.636 63.0124Z" fill="#9F9F9F"/>
<path fill-rule="evenodd" clip-rule="evenodd" d="M118.061 57.9675C116.706 56.2356 109.067 57.1492 105.639 57.5544C104.594 57.6815 104.435 56.7758 105.375 56.1244C111.459 51.8582 121.442 53.0896 122.606 54.5196C123.77 55.9576 122.303 65.9279 116.586 70.6867C115.709 71.4176 114.872 71.0283 115.262 70.0591C116.546 66.8654 119.425 59.7074 118.061 57.9675Z" fill="#9F9F9F"/>
<path fill-rule="evenodd" clip-rule="evenodd" d="M105.879 26.0059V21.8588C105.879 21.2312 106.358 20.8101 106.932 20.8101H125.565C126.164 20.8101 126.642 21.2391 126.642 21.8588V25.41C126.634 26.0059 126.132 26.7844 125.239 28.0158L115.583 41.7519C119.171 41.6645 122.958 42.1968 126.211 44.0241C126.945 44.4372 127.144 45.0409 127.2 45.6368V50.0619C127.2 50.6657 126.53 51.3727 125.829 51.0073C120.096 48.0122 112.481 47.6865 106.142 51.0391C105.496 51.3886 104.819 50.6895 104.819 50.0857V45.8831C104.819 45.2078 104.827 44.0558 105.504 43.031L116.691 27.0466H106.956C106.358 27.0466 105.879 26.6255 105.879 26.0059Z" fill="#9F9F9F"/>
<path fill-rule="evenodd" clip-rule="evenodd" d="M37.9058 51.8816H32.2367C31.6945 51.8419 31.2639 51.4367 31.2241 50.9203V21.9308C31.2241 21.3508 31.7105 20.89 32.3164 20.89H37.6028C38.153 20.9139 38.5915 21.3349 38.6314 21.8593V25.6488H38.735C40.1144 21.9864 42.7058 20.2783 46.1982 20.2783C49.7463 20.2783 51.9629 21.9864 53.5576 25.6488C54.929 21.9864 58.0467 20.2783 61.3875 20.2783C63.7636 20.2783 66.3629 21.2555 67.9496 23.4482C69.7437 25.8872 69.3769 29.4304 69.3769 32.5367L69.3689 50.833C69.3689 51.4129 68.8825 51.8816 68.2766 51.8816H62.6154C62.0493 51.8419 61.5948 51.3891 61.5948 50.833V35.4682C61.5948 34.2448 61.7064 31.1941 61.4354 30.0342C61.0128 28.0878 59.745 27.5396 58.1025 27.5396C56.731 27.5396 55.2958 28.4532 54.7138 29.915C54.1317 31.3768 54.1875 33.8237 54.1875 35.4682V50.833C54.1875 51.4129 53.7011 51.8816 53.0952 51.8816H47.434C46.86 51.8419 46.4134 51.3891 46.4134 50.833L46.4055 35.4682C46.4055 32.2348 46.9397 27.4761 42.9131 27.4761C38.8387 27.4761 38.9982 32.1157 38.9982 35.4682V50.833C38.9982 51.4129 38.5118 51.8816 37.9058 51.8816Z" fill="#9F9F9F"/>
<path fill-rule="evenodd" clip-rule="evenodd" d="M142.684 20.2783C151.096 20.2783 155.649 27.4761 155.649 36.6281C155.649 45.4704 150.618 52.4854 142.684 52.4854C134.424 52.4854 129.927 45.2877 129.927 36.3183C129.927 27.2933 134.48 20.2783 142.684 20.2783ZM142.732 26.197C138.554 26.197 138.291 31.8694 138.291 35.4047C138.291 38.9479 138.235 46.5111 142.684 46.5111C147.078 46.5111 147.285 40.4097 147.285 36.6917C147.285 34.2448 147.181 31.3212 146.44 29.0014C145.802 26.9835 144.534 26.197 142.732 26.197Z" fill="#9F9F9F"/>
<path fill-rule="evenodd" clip-rule="evenodd" d="M166.557 51.8816H160.912C160.346 51.8419 159.891 51.3891 159.891 50.833L159.883 21.8354C159.931 21.3032 160.401 20.89 160.975 20.89H166.23C166.724 20.9139 167.131 21.2476 167.243 21.7004V26.1334H167.346C168.933 22.1691 171.157 20.2783 175.072 20.2783C177.616 20.2783 180.096 21.1919 181.69 23.6945C183.173 26.0143 183.173 29.915 183.173 32.7194V50.968C183.11 51.4765 182.639 51.8816 182.081 51.8816H176.396C175.878 51.8419 175.447 51.4606 175.391 50.968V35.222C175.391 32.0521 175.758 27.4125 171.843 27.4125C170.464 27.4125 169.196 28.3341 168.566 29.7323C167.769 31.5039 167.665 33.2676 167.665 35.222V50.833C167.657 51.4129 167.163 51.8816 166.557 51.8816Z" fill="#9F9F9F"/>
<path fill-rule="evenodd" clip-rule="evenodd" d="M91.0246 38.0341C91.0246 40.2347 91.0804 42.0699 89.9641 44.0243C89.0631 45.6132 87.6279 46.5903 86.0412 46.5903C83.8645 46.5903 82.5887 44.9379 82.5887 42.4989C82.5887 37.6845 86.9183 36.8106 91.0246 36.8106V38.0341ZM96.7415 51.8019C96.3668 52.1356 95.8246 52.1595 95.402 51.937C93.5203 50.3799 93.1774 49.6569 92.1488 48.1713C89.0392 51.3332 86.8306 52.2786 82.804 52.2786C78.0279 52.2786 74.3203 49.3471 74.3203 43.4761C74.3203 38.8921 76.808 35.7699 80.3641 34.2445C83.4419 32.894 87.7395 32.6556 91.0246 32.2822V31.5513C91.0246 30.2087 91.1282 28.6198 90.3309 27.4599C89.6452 26.4192 88.3216 25.9902 87.1495 25.9902C84.9887 25.9902 83.0671 27.0945 82.5967 29.3825C82.501 29.8909 82.1263 30.3914 81.608 30.4153L76.1143 29.8274C75.6518 29.7241 75.1336 29.3507 75.2691 28.6437C76.5289 22.002 82.5568 20 87.9469 20C90.7057 20 94.3096 20.7309 96.4864 22.8124C99.2452 25.3784 98.9821 28.8025 98.9821 32.5285V41.3311C98.9821 43.9766 100.082 45.1365 101.119 46.5665C101.478 47.075 101.558 47.6867 101.095 48.068C99.9388 49.0293 97.8817 50.8168 96.7495 51.8178L96.7415 51.8019Z" fill="#9F9F9F"/>
<path fill-rule="evenodd" clip-rule="evenodd" d="M16.7043 38.0341C16.7043 40.2347 16.7601 42.0699 15.6438 44.0242C14.7428 45.6131 13.3156 46.5903 11.7209 46.5903C9.54417 46.5903 8.2764 44.9379 8.2764 42.4989C8.2764 37.6845 12.606 36.8106 16.7043 36.8106V38.0341ZM22.4212 51.8019C22.0465 52.1356 21.5043 52.1594 21.0817 51.937C19.2 50.3799 18.8651 49.6569 17.8285 48.1713C14.7189 51.3332 12.5183 52.2786 8.48371 52.2786C3.71561 52.2786 0 49.3471 0 43.4761C0 38.8921 2.49568 35.7699 6.04385 34.2445C9.12158 32.894 13.4193 32.6556 16.7043 32.2822V31.5513C16.7043 30.2087 16.808 28.6198 16.0186 27.4599C15.3249 26.4192 14.0013 25.9902 12.8372 25.9902C10.6764 25.9902 8.74683 27.0945 8.2764 29.3825C8.18072 29.8909 7.80597 30.3914 7.29567 30.4153L1.79402 29.8274C1.33156 29.7241 0.82126 29.3507 0.948835 28.6436C2.21661 22.002 8.23653 20 13.6266 20C16.3854 20 19.9893 20.7309 22.1661 22.8124C24.9249 25.3784 24.6618 28.8025 24.6618 32.5285V41.331C24.6618 43.9766 25.7621 45.1365 26.7986 46.5665C27.1654 47.0749 27.2451 47.6867 26.7827 48.068C25.6265 49.0293 23.5694 50.8168 22.4372 51.8178L22.4212 51.8019Z" fill="#9F9F9F"/>
</g>
</g>
</g>
<defs>
<clipPath id="clip0_1_8612">
<rect width="184" height="80" fill="white"/>
</clipPath>
<clipPath id="clip1_1_8612">
<rect width="184" height="80" fill="white"/>
</clipPath>
<clipPath id="clip2_1_8612">
<rect width="184" height="80" fill="white"/>
</clipPath>
</defs>
</svg>
