<svg width="184" height="70" viewBox="0 0 184 70" fill="none" xmlns="http://www.w3.org/2000/svg">
<g clip-path="url(#clip0_1_8626)">
<g clip-path="url(#clip1_1_8626)">
<path fill-rule="evenodd" clip-rule="evenodd" d="M178.142 46.3331C178.252 47.5929 179.26 49.1965 181.007 49.1965H182.027C182.424 49.1965 182.749 48.872 182.749 48.4757V26.0108H182.744C182.724 25.6323 182.411 25.3292 182.027 25.3292H178.863C178.479 25.3292 178.167 25.6323 178.147 26.0108H178.142V27.8362C176.202 25.4457 173.145 24.4536 170.08 24.4536C163.11 24.4536 157.461 30.1075 157.461 37.0824C157.461 44.0578 163.11 49.7118 170.08 49.7118C173.145 49.7118 176.487 48.522 178.142 46.3303V46.3331ZM170.091 45.292C165.659 45.292 162.066 41.6167 162.066 37.0824C162.066 32.549 165.659 28.8736 170.091 28.8736C174.525 28.8736 178.117 32.549 178.117 37.0824C178.117 41.6167 174.525 45.292 170.091 45.292Z" fill="#9F9F9F"/>
<path fill-rule="evenodd" clip-rule="evenodd" d="M153.458 35.4812C153.458 28.9284 149.328 24.5078 142.74 24.5078C139.596 24.5078 137.018 26.3275 136.108 27.8906C135.911 26.6683 135.263 25.3836 133.252 25.3836H132.227C131.831 25.3836 131.507 25.7084 131.507 26.1047V46.3894V46.3926V48.5716H131.511C131.532 48.9494 131.845 49.2528 132.228 49.2528H135.393C135.441 49.2528 135.489 49.2471 135.535 49.2382C135.556 49.2341 135.575 49.2258 135.596 49.2201C135.619 49.2128 135.644 49.2072 135.666 49.198C135.694 49.1863 135.72 49.1707 135.746 49.156C135.759 49.1481 135.772 49.1427 135.785 49.1345C135.816 49.114 135.845 49.0895 135.873 49.0645C135.878 49.0599 135.883 49.0568 135.888 49.0525C135.919 49.022 135.948 48.9884 135.973 48.9535C136.053 48.8447 136.101 48.713 136.109 48.5716H136.113V35.3009C136.113 31.7816 138.964 28.9284 142.481 28.9284C145.998 28.9284 148.849 31.7816 148.849 35.3009L148.852 46.3934V46.3894C148.852 46.3993 148.854 46.4094 148.854 46.4199V48.5716H148.858C148.879 48.9494 149.192 49.2528 149.574 49.2528H152.74C152.788 49.2528 152.836 49.2471 152.881 49.2382C152.9 49.2347 152.917 49.2271 152.936 49.222C152.962 49.2145 152.988 49.2081 153.013 49.198C153.039 49.1873 153.063 49.1723 153.087 49.1585C153.102 49.1501 153.118 49.144 153.132 49.1345C153.161 49.1152 153.188 49.092 153.214 49.0691C153.221 49.0628 153.229 49.0582 153.235 49.052C153.265 49.023 153.292 48.9917 153.316 48.959C153.318 48.9565 153.32 48.9545 153.322 48.952C153.4 48.8442 153.447 48.714 153.456 48.5734V48.5716H153.46L153.458 35.4812Z" fill="#9F9F9F"/>
<path fill-rule="evenodd" clip-rule="evenodd" d="M120.495 46.3331C120.606 47.5929 121.614 49.1965 123.359 49.1965H124.381C124.777 49.1965 125.101 48.872 125.101 48.4757V26.0108H125.097C125.076 25.6323 124.763 25.3292 124.381 25.3292H121.216C120.833 25.3292 120.52 25.6323 120.499 26.0108H120.495V27.8362C118.556 25.4457 115.498 24.4536 112.432 24.4536C105.463 24.4536 99.8135 30.1075 99.8135 37.0825C99.8135 44.0578 105.463 49.7119 112.432 49.7119C115.498 49.7119 118.84 48.5221 120.495 46.3303V46.3331ZM112.444 45.2919C108.012 45.2919 104.419 41.6168 104.419 37.0825C104.419 32.549 108.012 28.8736 112.444 28.8736C116.877 28.8736 120.47 32.549 120.47 37.0825C120.47 41.6168 116.877 45.2919 112.444 45.2919Z" fill="#9F9F9F"/>
<path fill-rule="evenodd" clip-rule="evenodd" d="M81.0959 43.1156C83.2089 44.5805 85.5153 45.2921 87.7317 45.2921C89.8432 45.2921 92.0261 44.1966 92.0261 42.2897C92.0261 39.7441 87.2695 39.348 84.281 38.3315C81.2918 37.315 78.7174 35.2137 78.7174 31.8107C78.7174 26.6037 83.3534 24.4531 87.6805 24.4531C90.422 24.4531 93.2507 25.3579 95.0846 26.6539C95.7161 27.1329 95.3315 27.6827 95.3315 27.6827L93.5809 30.1849C93.3842 30.4667 93.0401 30.7102 92.5464 30.4052C92.0524 30.1004 90.3203 28.8733 87.6805 28.8733C85.0403 28.8733 83.4501 30.0935 83.4501 31.6058C83.4501 33.4193 85.5169 33.9897 87.9378 34.6078C92.1567 35.7458 96.7588 37.1138 96.7588 42.2897C96.7588 46.8776 92.4708 49.7128 87.7317 49.7128C84.1404 49.7128 81.0827 48.6882 78.5183 46.8049C77.9841 46.2699 78.3572 45.773 78.3572 45.773L80.0992 43.2835C80.4537 42.8181 80.9005 42.9804 81.0959 43.1156Z" fill="#9F9F9F"/>
<path fill-rule="evenodd" clip-rule="evenodd" d="M68.9278 46.3331C69.0385 47.5929 70.0462 49.1965 71.7919 49.1965H72.8135C73.2094 49.1965 73.5339 48.872 73.5339 48.4757V26.0108H73.5295C73.5087 25.6323 73.1961 25.3292 72.8135 25.3292H69.6483C69.2655 25.3292 68.9528 25.6323 68.9316 26.0108H68.9278V27.8362C66.9885 25.4457 63.931 24.4536 60.865 24.4536C53.8958 24.4536 48.2461 30.1075 48.2461 37.0825C48.2461 44.0578 53.8958 49.7119 60.865 49.7119C63.931 49.7119 67.2724 48.5221 68.9273 46.3303L68.9278 46.3331ZM60.8773 45.2919C56.4449 45.2919 52.8517 41.6168 52.8517 37.0825C52.8517 32.549 56.4449 28.8736 60.8773 28.8736C65.3096 28.8736 68.9025 32.549 68.9025 37.0825C68.9025 41.6168 65.3096 45.2919 60.8773 45.2919Z" fill="#9F9F9F"/>
<path fill-rule="evenodd" clip-rule="evenodd" d="M30.5549 37.9431C25.865 37.9431 22.0629 41.7451 22.0629 46.4354C22.0629 51.1255 25.865 54.9275 30.5549 54.9275C35.245 54.9275 39.047 51.1255 39.047 46.4354C39.047 41.7451 35.245 37.9431 30.5549 37.9431ZM8.49202 37.9439C3.80205 37.9439 0 41.7451 0 46.4354C0 51.1255 3.80205 54.9275 8.49202 54.9275C13.1822 54.9275 16.9844 51.1255 16.9844 46.4354C16.9844 41.7451 13.1822 37.9439 8.49202 37.9439ZM28.0154 27.3278C28.0154 32.0181 24.2136 35.8205 19.5235 35.8205C14.8334 35.8205 11.0315 32.0181 11.0315 27.3278C11.0315 22.6384 14.8334 18.8359 19.5235 18.8359C24.2136 18.8359 28.0154 22.6384 28.0154 27.3278Z" fill="#9F9F9F"/>
</g>
</g>
<defs>
<clipPath id="clip0_1_8626">
<rect width="184" height="70" fill="white"/>
</clipPath>
<clipPath id="clip1_1_8626">
<rect width="184" height="70" fill="white"/>
</clipPath>
</defs>
</svg>
