<svg width="70" height="70" viewBox="0 0 70 70" fill="none" xmlns="http://www.w3.org/2000/svg">
<rect x="1" y="1" width="68" height="68" rx="34" stroke="#141414" stroke-width="2"/>
<path d="M27.5625 18C28.2266 18.0443 28.5807 18.3984 28.625 19.0625V22.25H41.375V19.0625C41.4193 18.3984 41.7734 18.0443 42.4375 18C43.1016 18.0443 43.4557 18.3984 43.5 19.0625V22.25H45.625C46.8203 22.2943 47.8164 22.7148 48.6133 23.5117C49.4102 24.3086 49.8307 25.3047 49.875 26.5V47.75C49.8307 48.9453 49.4102 49.9414 48.6133 50.7383C47.8164 51.5352 46.8203 51.9557 45.625 52H24.375C23.1797 51.9557 22.1836 51.5352 21.3867 50.7383C20.5898 49.9414 20.1693 48.9453 20.125 47.75V26.5C20.1693 25.3047 20.5898 24.3086 21.3867 23.5117C22.1836 22.7148 23.1797 22.2943 24.375 22.25H26.5V19.0625C26.5443 18.3984 26.8984 18.0443 27.5625 18ZM47.75 30.75H22.25V47.75C22.25 48.3698 22.4492 48.8789 22.8477 49.2773C23.2461 49.6758 23.7552 49.875 24.375 49.875H45.625C46.2448 49.875 46.7539 49.6758 47.1523 49.2773C47.5508 48.8789 47.75 48.3698 47.75 47.75V30.75ZM45.625 24.375H24.375C23.7552 24.375 23.2461 24.5742 22.8477 24.9727C22.4492 25.3711 22.25 25.8802 22.25 26.5V28.625H47.75V26.5C47.75 25.8802 47.5508 25.3711 47.1523 24.9727C46.7539 24.5742 46.2448 24.375 45.625 24.375Z" fill="#2A2D31"/>
</svg>
