<svg width="184" height="66" viewBox="0 0 184 66" fill="none" xmlns="http://www.w3.org/2000/svg">
<g clip-path="url(#clip0_1_8564)">
<g clip-path="url(#clip1_1_8564)">
<g clip-path="url(#clip2_1_8564)">
<path d="M0 2.72656H39.7204V22.5868H19.8602L0 2.72656ZM0 22.5868H19.8602L39.7204 42.4469H0V22.5868ZM0 42.4469H19.8602V62.3071L0 42.4469Z" fill="#9F9F9F"/>
<path d="M62.1318 18.3945H78.1876V23.4965H68.2088V30.5867H78.1876V35.576H68.2088V44.6543H62.1318V18.3945ZM81.4886 26.5723H87.2285V30.3613C87.5284 29.0592 88.1417 28.0597 89.0667 27.3601C90.0153 26.6341 91.0685 26.2724 92.2179 26.2724C92.8185 26.2724 93.3192 26.3233 93.7181 26.4224V31.7497C93.1456 31.6807 92.5695 31.6434 91.9925 31.6371C90.417 31.6371 89.2303 32.1486 88.4288 33.1745C87.6302 34.1749 87.2285 35.6751 87.2285 37.6768V44.6543H81.4914V26.5723H81.4886ZM102.779 45.1422C101.029 45.1422 99.5025 44.7288 98.2022 43.9037C96.9265 43.0787 95.9124 41.9074 95.2764 40.5272C94.6013 39.0779 94.2614 37.4378 94.2614 35.6133C94.2614 33.8124 94.614 32.1859 95.3136 30.7366C95.9697 29.3364 97.011 28.1524 98.3149 27.3228C99.6388 26.4978 101.153 26.0844 102.855 26.0844C104.129 26.0844 105.269 26.3606 106.268 26.9103C107.268 27.4619 108.018 28.2124 108.519 29.161V26.5723H114.221V44.6543H108.519V42.1028C108.018 43.0033 107.243 43.7402 106.193 44.3163C105.143 44.8733 103.969 45.1567 102.779 45.1422ZM104.43 40.3773C105.805 40.3773 106.868 39.9275 107.619 39.027C108.369 38.1266 108.744 36.9881 108.744 35.6133C108.744 34.263 108.369 33.1372 107.619 32.2368C106.868 31.3363 105.805 30.8865 104.43 30.8865C103.128 30.8865 102.079 31.3236 101.279 32.1995C100.504 33.0754 100.116 34.2122 100.116 35.6133C100.116 37.0144 100.504 38.1638 101.279 39.0643C102.079 39.9402 103.13 40.3773 104.43 40.3773ZM118.235 26.5723H123.975V29.1983C124.377 28.2715 125.025 27.5209 125.925 26.9476C126.852 26.3742 127.927 26.0844 129.152 26.0844C132.003 26.0844 133.892 27.1965 134.816 29.4236C135.325 28.4141 136.121 27.5791 137.105 27.023C138.157 26.3897 139.366 26.0653 140.593 26.0844C144.87 26.0844 147.008 28.534 147.008 33.4371V44.6543H141.231V34.4875C141.231 33.2635 141.006 32.3631 140.556 31.787C140.105 31.2127 139.43 30.9238 138.53 30.9238C137.555 30.9238 136.804 31.2618 136.279 31.9369C135.754 32.5875 135.491 33.7242 135.491 35.3507V44.6543H129.714V34.4502C129.714 33.2254 129.49 32.3367 129.039 31.787C128.615 31.2127 127.951 30.9238 127.053 30.9238C126.051 30.9238 125.288 31.2618 124.763 31.9369C124.238 32.5875 123.975 33.7242 123.975 35.3507V44.6543H118.237V26.5723H118.235ZM168.57 34.6756C168.57 35.4497 168.519 36.2884 168.418 37.1889H155.065C155.116 38.3646 155.515 39.2633 156.265 39.8903C157.016 40.5145 158.031 40.828 159.304 40.828C161.08 40.828 162.206 40.2892 162.68 39.2142H168.308C168.031 40.9906 167.056 42.4272 165.381 43.5285C163.731 44.6034 161.705 45.1422 159.304 45.1422C156.204 45.1422 153.765 44.3035 151.988 42.628C150.238 40.9516 149.362 38.6145 149.362 35.6133C149.362 33.6624 149.762 31.9742 150.563 30.5485C151.336 29.1247 152.528 27.9725 153.977 27.2474C155.453 26.4732 157.166 26.0844 159.119 26.0844C160.968 26.0844 162.605 26.4469 164.031 27.1729C165.481 27.8989 166.595 28.9111 167.369 30.2114C168.17 31.5135 168.57 33.0009 168.57 34.6756ZM162.903 33.6252C162.879 32.4249 162.541 31.5108 161.89 30.8865C161.241 30.2623 160.302 29.9488 159.077 29.9488C157.852 29.9488 156.877 30.2859 156.151 30.9619C155.451 31.6125 155.089 32.4994 155.062 33.6252H162.903ZM171.101 26.5723H176.841V30.3613C177.141 29.0592 177.754 28.0597 178.679 27.3601C179.577 26.6532 180.687 26.2697 181.83 26.2724C182.43 26.2724 182.931 26.3233 183.33 26.4224V31.7497C182.758 31.6807 182.182 31.6434 181.605 31.6371C180.029 31.6371 178.842 32.1486 178.041 33.1745C177.24 34.1749 176.841 35.6751 176.841 37.6768V44.6543H171.101V26.5723Z" fill="#9F9F9F"/>
</g>
</g>
</g>
<defs>
<clipPath id="clip0_1_8564">
<rect width="184" height="66" fill="white"/>
</clipPath>
<clipPath id="clip1_1_8564">
<rect width="184" height="66" fill="white"/>
</clipPath>
<clipPath id="clip2_1_8564">
<rect width="184" height="66" fill="white"/>
</clipPath>
</defs>
</svg>
