<svg width="70" height="70" viewBox="0 0 70 70" fill="none" xmlns="http://www.w3.org/2000/svg">
<rect x="1" y="1" width="68" height="68" rx="34" stroke="#141414" stroke-width="2"/>
<path d="M50.9375 26.8984C51.6016 27.2969 51.9557 27.8945 52 28.6914C52 29.2669 51.8008 29.7539 51.4023 30.1523C51.0039 30.5508 50.5169 30.75 49.9414 30.75H20.0586C19.4831 30.75 18.9961 30.5508 18.5977 30.1523C18.1992 29.7539 18 29.2669 18 28.6914C18.0443 27.8945 18.3984 27.2969 19.0625 26.8984L34.4688 18.1328C34.7786 17.9557 35.1328 17.9557 35.5312 18.1328L50.9375 26.8984ZM49.7422 28.625L35 20.2578L20.2578 28.625H31.6133C31.3919 28.138 31.2812 27.6068 31.2812 27.0312C31.3255 25.9688 31.6797 25.0833 32.3438 24.375C33.0521 23.7109 33.9375 23.3568 35 23.3125C36.0625 23.3568 36.9479 23.7109 37.6562 24.375C38.3203 25.0833 38.6745 25.9688 38.7188 27.0312C38.7188 27.6068 38.6081 28.138 38.3867 28.625H49.7422ZM35 28.625C35.974 28.5365 36.5052 28.0052 36.5938 27.0312C36.5052 26.0573 35.974 25.526 35 25.4375C34.026 25.526 33.4948 26.0573 33.4062 27.0312C33.4948 28.0052 34.026 28.5365 35 28.625ZM22.25 32.875H24.375V41.375H29.6875V32.875H31.8125V41.375H38.1875V32.875H40.3125V41.375H45.625V32.875H47.75V41.375C48.4141 41.4193 48.7682 41.7734 48.8125 42.4375C48.7682 43.1016 48.4141 43.4557 47.75 43.5H22.25C21.5859 43.4557 21.2318 43.1016 21.1875 42.4375C21.2318 41.7734 21.5859 41.4193 22.25 41.375V32.875ZM49.3438 45.625C50.0078 45.6693 50.362 46.0234 50.4062 46.6875C50.362 47.3516 50.0078 47.7057 49.3438 47.75H20.6562C19.9922 47.7057 19.638 47.3516 19.5938 46.6875C19.638 46.0234 19.9922 45.6693 20.6562 45.625H49.3438ZM50.9375 49.875C51.6016 49.9193 51.9557 50.2734 52 50.9375C51.9557 51.6016 51.6016 51.9557 50.9375 52H19.0625C18.3984 51.9557 18.0443 51.6016 18 50.9375C18.0443 50.2734 18.3984 49.9193 19.0625 49.875H50.9375Z" fill="#141414"/>
</svg>
