<svg width="184" height="60" viewBox="0 0 184 60" fill="none" xmlns="http://www.w3.org/2000/svg">
<g clip-path="url(#clip0_1_8554)">
<g clip-path="url(#clip1_1_8554)">
<g clip-path="url(#clip2_1_8554)">
<path d="M0.297607 32.5796L19.6362 51.9182C9.76064 50.2489 1.96692 42.4552 0.297607 32.5796Z" fill="#9F9F9F"/>
<path d="M0 27.3296L24.8863 52.2159C26.3663 52.1368 27.8102 51.9216 29.2055 51.5825L0.633347 23.0103C0.294295 24.4058 0.0790808 25.8496 0 27.3296Z" fill="#9F9F9F"/>
<path d="M1.87207 19.2961L32.9196 50.3437C34.0504 49.8583 35.1358 49.2874 36.1674 48.6389L3.57689 16.0483C2.92838 17.08 2.35739 18.1653 1.87207 19.2961Z" fill="#9F9F9F"/>
<path d="M5.68018 13.1994C10.0152 8.16226 16.4374 4.97266 23.6045 4.97266C36.6598 4.97266 47.2431 15.556 47.2431 28.6113C47.2431 35.7784 44.0536 42.2006 39.0164 46.5356L5.68018 13.1994Z" fill="#9F9F9F"/>
<path d="M71.8711 42.7669H89.1916V38.0502H77.5917V15.7094H71.8711V42.7669ZM92.8742 42.7669H98.5026V22.4738H92.8742V42.7669ZM95.7015 20.0692C97.34 20.0692 98.7535 18.8273 98.7535 17.2155C98.7535 15.6169 97.34 14.375 95.7015 14.375C94.0766 14.375 92.663 15.6169 92.663 17.2155C92.663 18.8273 94.0766 20.0692 95.7015 20.0692ZM108.639 31.0349C108.652 28.419 110.211 26.8864 112.484 26.8864C114.743 26.8864 116.104 28.3662 116.091 30.85V42.7669H121.719V29.8459C121.719 25.1161 118.944 22.2095 114.717 22.2095C111.704 22.2095 109.524 23.6892 108.613 26.0541H108.375V22.4738H103.011V42.7669H108.639V31.0349ZM135.456 43.1633C140.489 43.1633 143.858 40.719 144.651 36.9537L139.459 36.6102C138.89 38.1561 137.424 38.9619 135.561 38.9619C132.747 38.9619 130.964 37.099 130.964 34.0736V34.0604H144.783V32.5146C144.783 25.6181 140.608 22.2095 135.244 22.2095C129.272 22.2095 125.402 26.4505 125.402 32.7128C125.402 39.1469 129.22 43.1633 135.456 43.1633ZM130.964 30.5725C131.069 28.2605 132.84 26.4108 135.337 26.4108C137.768 26.4108 139.459 28.1548 139.485 30.5725H130.964ZM154.322 43.1501C157.321 43.1501 159.263 41.8421 160.254 39.9528H160.412V42.7669H165.75V29.0796C165.75 24.2441 161.615 22.2095 157.228 22.2095C152.234 22.2095 149.077 24.5348 148.297 28.234L153.503 28.6568C153.886 27.3092 155.088 26.3183 157.11 26.3183C159.052 26.3183 160.109 27.2696 160.122 28.9739C160.135 30.3083 158.735 30.5064 155.207 30.85C151.191 31.2199 147.584 32.5675 147.584 37.099C147.584 41.1154 150.451 43.1501 154.322 43.1501ZM155.934 39.2658C154.203 39.2658 152.961 38.4599 152.961 36.9141C152.961 35.3288 154.269 34.5491 156.251 34.2718C157.479 34.1 159.487 33.8094 160.161 33.3602V35.5137C160.161 37.6408 158.404 39.2658 155.934 39.2658ZM170.116 42.7669H175.745V31.2859C175.758 28.8021 177.555 27.0978 179.827 27.0978C180.593 27.0978 181.214 27.3092 181.743 27.5735L183.434 22.923C182.694 22.4738 181.743 22.1831 180.659 22.1831C178.374 22.1831 176.524 23.5043 175.784 26.0145H175.573V22.4738H170.116V42.7669Z" fill="#9F9F9F"/>
</g>
</g>
</g>
<defs>
<clipPath id="clip0_1_8554">
<rect width="184" height="60" fill="white"/>
</clipPath>
<clipPath id="clip1_1_8554">
<rect width="184" height="60" fill="white"/>
</clipPath>
<clipPath id="clip2_1_8554">
<rect width="184" height="60" fill="white"/>
</clipPath>
</defs>
</svg>
