<svg width="190" height="71" viewBox="0 0 190 71" fill="none" xmlns="http://www.w3.org/2000/svg">
<g clip-path="url(#clip0_1_8571)">
<g clip-path="url(#clip1_1_8571)">
<g clip-path="url(#clip2_1_8571)">
<path d="M66.1841 51.2209V29.7832H66.5661L82.1706 51.2209H87.0811V19.7394H81.625V41.1231H81.2431L65.6385 19.7394H60.728V51.2209H66.1841ZM102.522 51.7069C109.724 51.7069 114.144 47.063 114.144 39.2871C114.144 31.5652 109.724 26.8673 102.522 26.8673C95.3745 26.8673 90.9004 31.5652 90.9004 39.2871C90.955 47.063 95.3199 51.7069 102.522 51.7069ZM102.522 47.171C98.7027 47.171 96.5202 44.309 96.5202 39.2871C96.5202 34.3192 98.7027 31.4032 102.522 31.4032C106.341 31.4032 108.524 34.3192 108.524 39.2871C108.524 44.309 106.341 47.171 102.522 47.171ZM119.109 21.5214V27.5153H115.289V31.8352H119.109V44.849C119.109 49.4929 121.291 51.3289 126.856 51.3289C127.893 51.3289 128.93 51.2209 129.748 51.0589V46.847C129.093 46.901 128.657 46.955 127.893 46.955C125.602 46.955 124.565 45.929 124.565 43.553V31.8352H129.748V27.5153H124.565V21.5214H119.109ZM133.022 51.2209H138.478V27.3533H133.022V51.2209ZM135.75 23.4113C137.55 23.4113 139.024 21.9533 139.024 20.1714C139.024 18.3354 137.55 16.8774 135.75 16.8774C133.949 16.8774 132.476 18.3354 132.476 20.1714C132.476 21.9533 133.949 23.4113 135.75 23.4113ZM153.428 51.7069C160.63 51.7069 165.049 47.063 165.049 39.2871C165.049 31.5652 160.63 26.8673 153.428 26.8673C146.28 26.8673 141.806 31.5652 141.806 39.2871C141.806 47.063 146.171 51.7069 153.428 51.7069ZM153.428 47.171C149.609 47.171 147.426 44.309 147.426 39.2871C147.426 34.3192 149.609 31.4032 153.428 31.4032C157.193 31.4032 159.43 34.3192 159.43 39.2871C159.375 44.309 157.193 47.171 153.428 47.171ZM168.269 51.2209H173.725V37.3431C173.725 33.8332 175.798 31.6192 179.017 31.6192C182.345 31.6192 183.873 33.4552 183.873 37.0731V51.2209H189.329V35.7771C189.329 30.0532 186.383 26.8673 181.036 26.8673C177.435 26.8673 175.034 28.4873 173.888 31.1872H173.506V27.3533H168.214C168.269 27.3533 168.269 51.2209 168.269 51.2209Z" fill="#9F9F9F"/>
<path fill-rule="evenodd" clip-rule="evenodd" d="M8.4131 17.7243C10.0011 19.0054 10.5755 18.9043 13.5488 18.702L41.5587 17.0164C42.1669 17.0164 41.6601 16.4095 41.4573 16.3421L36.7947 13.0045C35.9162 12.3302 34.6998 11.5211 32.4361 11.7234L5.33844 13.7125C4.3586 13.8136 4.15587 14.3193 4.56132 14.6901L8.4131 17.7243ZM10.1025 24.231V53.6288C10.1025 55.2133 10.8796 55.7865 12.6703 55.6853L43.4508 53.8985C45.2415 53.7974 45.4443 52.7186 45.4443 51.4375V22.2419C45.4443 20.9608 44.9375 20.2528 43.8563 20.354L11.6905 22.2419C10.5079 22.343 10.1025 22.9499 10.1025 24.231ZM40.4775 25.8155C40.6802 26.692 40.4775 27.6023 39.599 27.7034L38.1124 28.0068V49.7181C36.8284 50.3924 35.6459 50.7969 34.6323 50.7969C33.0442 50.7969 32.6388 50.2912 31.4562 48.8078L21.7592 33.6032V48.3021L24.8339 48.9764C24.8339 48.9764 24.8339 50.7632 22.3674 50.7632L15.5423 51.1678C15.3396 50.7632 15.5423 49.7855 16.218 49.5832L18.0088 49.0775V29.6588L15.5423 29.4565C15.3396 28.58 15.8464 27.2989 17.2317 27.1977L24.5636 26.692L34.666 42.0652V28.4788L32.0982 28.1754C31.8955 27.0966 32.7064 26.2875 33.6862 26.1863L40.4775 25.8155ZM3.07467 11.0154L31.2873 8.95891C34.7336 8.65549 35.6459 8.85777 37.8083 10.4423L46.7958 16.7466C48.2824 17.8255 48.7892 18.1289 48.7892 19.3088V53.9322C48.7892 56.0899 48.0121 57.371 45.2415 57.5732L12.5014 59.5623C10.4066 59.6635 9.42673 59.3601 8.34553 57.9778L1.68938 49.381C0.506813 47.7964 0 46.6165 0 45.2342V14.4542C0 12.6674 0.810901 11.2177 3.07467 11.0154Z" fill="#9F9F9F"/>
</g>
</g>
</g>
<defs>
<clipPath id="clip0_1_8571">
<rect width="190" height="71" fill="white"/>
</clipPath>
<clipPath id="clip1_1_8571">
<rect width="190" height="71" fill="white"/>
</clipPath>
<clipPath id="clip2_1_8571">
<rect width="190" height="71" fill="white"/>
</clipPath>
</defs>
</svg>
