<svg width="70" height="70" viewBox="0 0 70 70" fill="none" xmlns="http://www.w3.org/2000/svg">
<rect x="1" y="1" width="68" height="68" rx="34" stroke="#141414" stroke-width="2"/>
<path d="M36.5937 24.5078L41.5742 19.5274C42.4153 18.6862 43.4114 18.2657 44.5625 18.2657C45.7135 18.2657 46.7096 18.6862 47.5508 19.5274L50.4726 22.4492C51.3138 23.2904 51.7343 24.2865 51.7343 25.4375C51.7343 26.5886 51.3138 27.5847 50.4726 28.4258L45.4922 33.4063L43.0351 42.5039C42.4596 44.4076 41.2643 45.6693 39.4492 46.2891L21.1211 51.7344C20.2799 51.9558 19.5273 51.7565 18.8633 51.1367C18.2435 50.4727 18.0442 49.7201 18.2656 48.8789L23.7109 30.5508C24.3307 28.6914 25.5703 27.4961 27.4297 26.9649L36.5937 24.5078ZM38.6523 25.4375L44.5625 31.3477L49.0117 26.9649C49.4101 26.5222 49.6094 26.013 49.6094 25.4375C49.6094 24.862 49.4101 24.3529 49.0117 23.9102L46.0898 20.9883C45.6471 20.5899 45.138 20.3906 44.5625 20.3906C43.987 20.3906 43.4778 20.5899 43.0351 20.9883L38.6523 25.4375ZM36.7929 26.6328L28.0273 29.0235C26.8763 29.3776 26.1237 30.1081 25.7695 31.2149L20.8554 47.6836L28.1601 40.3789C27.7617 39.6706 27.5625 38.9401 27.5625 38.1875C27.6067 36.9922 28.0273 35.9961 28.8242 35.1992C29.6211 34.4024 30.6172 33.9818 31.8125 33.9375C33.0078 33.9818 34.0039 34.4024 34.8008 35.1992C35.5976 35.9961 36.0182 36.9922 36.0625 38.1875C36.0182 39.3828 35.5976 40.3789 34.8008 41.1758C34.0039 41.9727 33.0078 42.3933 31.8125 42.4375C31.0156 42.4375 30.3073 42.2383 29.6875 41.8399L22.3164 49.1446L38.7851 44.2305C39.8919 43.8763 40.6224 43.1459 40.9765 42.0391L43.3672 33.2071L36.7929 26.6328ZM31.8125 36.0625C31.1927 36.0625 30.6836 36.2617 30.2851 36.6602C29.8867 37.0586 29.6875 37.5677 29.6875 38.1875C29.6875 38.8073 29.8867 39.3164 30.2851 39.7149C30.6836 40.1133 31.1927 40.3125 31.8125 40.3125C32.4323 40.3125 32.9414 40.1133 33.3398 39.7149C33.7383 39.3164 33.9375 38.8073 33.9375 38.1875C33.9375 37.5677 33.7383 37.0586 33.3398 36.6602C32.9414 36.2617 32.4323 36.0625 31.8125 36.0625Z" fill="#2A2D31"/>
</svg>
