<svg width="42" height="227" viewBox="0 0 42 227" fill="none" xmlns="http://www.w3.org/2000/svg">
<rect width="175" height="41" transform="matrix(0 -1 1 0 0 175)" fill="#1F242E"/>
<path d="M21.944 145.528H15.656L21.944 149.144V145.528ZM25 144.648V145.32C25 145.459 24.9253 145.528 24.776 145.528H22.968V149.976C22.968 150.2 22.856 150.312 22.632 150.312H22.248C22.0667 150.312 21.9067 150.275 21.768 150.2L15.032 146.296C14.8187 146.2 14.712 146.04 14.712 145.816V144.776C14.712 144.541 14.824 144.424 15.048 144.424H21.944V143.24C21.944 143.091 22.0133 143.016 22.152 143.016H22.728C22.888 143.016 22.968 143.091 22.968 143.24V144.424H24.776C24.9253 144.424 25 144.499 25 144.648ZM23.976 139.074V137.666C23.976 136.77 23.528 136.322 22.632 136.322H21.672C20.7547 136.322 20.296 136.77 20.296 137.666V139.074C20.296 139.97 20.7547 140.418 21.672 140.418H22.632C23.528 140.418 23.976 139.97 23.976 139.074ZM19.352 139.074V137.666C19.352 136.77 18.888 136.322 17.96 136.322H17.08C16.184 136.322 15.736 136.77 15.736 137.666V139.074C15.736 139.97 16.184 140.418 17.08 140.418H17.96C18.888 140.418 19.352 139.97 19.352 139.074ZM25 137.522V139.218C25 139.954 24.8027 140.53 24.408 140.946C24.0027 141.362 23.4373 141.57 22.712 141.57H21.736C20.776 141.57 20.136 141.197 19.816 140.45C19.528 141.197 18.888 141.57 17.896 141.57H17C16.264 141.57 15.6987 141.362 15.304 140.946C14.9093 140.53 14.712 139.954 14.712 139.218V137.522C14.712 136.786 14.9093 136.21 15.304 135.794C15.6987 135.378 16.264 135.17 17 135.17H17.896C18.3867 135.17 18.8027 135.271 19.144 135.474C19.4747 135.677 19.6987 135.949 19.816 136.29C20.1253 135.543 20.7707 135.17 21.752 135.17H22.712C23.4373 135.17 24.0027 135.378 24.408 135.794C24.8027 136.21 25 136.786 25 137.522ZM25 127.886V128.606C25 128.755 24.9253 128.83 24.776 128.83H14.936C14.7867 128.83 14.712 128.755 14.712 128.606V124.862C14.712 124.126 14.9253 123.55 15.352 123.134C15.768 122.718 16.344 122.51 17.08 122.51H18.856C19.6027 122.51 20.184 122.718 20.6 123.134C21.016 123.55 21.224 124.126 21.224 124.862V127.502C21.224 127.608 21.272 127.662 21.368 127.662H24.776C24.9253 127.662 25 127.736 25 127.886ZM20.184 127.502V125.022C20.184 124.126 19.7253 123.678 18.808 123.678H17.128C16.2 123.678 15.736 124.126 15.736 125.022V127.502C15.736 127.608 15.784 127.662 15.88 127.662H20.04C20.136 127.662 20.184 127.608 20.184 127.502ZM25 119.464V120.184C25 120.333 24.9253 120.408 24.776 120.408H14.936C14.7867 120.408 14.712 120.333 14.712 120.184V116.504C14.712 115.768 14.9253 115.187 15.352 114.76C15.768 114.333 16.344 114.12 17.08 114.12H18.536C19.1333 114.12 19.6293 114.264 20.024 114.552C20.408 114.84 20.664 115.24 20.792 115.752H20.856L24.744 113.896C24.9147 113.8 25 113.853 25 114.056V114.776C25 114.957 24.9253 115.091 24.776 115.176L20.904 116.968V119.08C20.904 119.187 20.952 119.24 21.048 119.24H24.776C24.9253 119.24 25 119.315 25 119.464ZM19.928 119.08V116.664C19.928 115.747 19.4693 115.288 18.552 115.288H17.128C16.2 115.288 15.736 115.747 15.736 116.664V119.08C15.736 119.187 15.784 119.24 15.88 119.24H19.784C19.88 119.24 19.928 119.187 19.928 119.08ZM25 106.566V111.59C25 111.739 24.9253 111.814 24.776 111.814H14.936C14.7867 111.814 14.712 111.739 14.712 111.59V106.566C14.712 106.417 14.7867 106.342 14.936 106.342H15.512C15.6613 106.342 15.736 106.417 15.736 106.566V110.486C15.736 110.593 15.784 110.646 15.88 110.646H19.112C19.208 110.646 19.256 110.593 19.256 110.486V107.062C19.256 106.913 19.3307 106.838 19.48 106.838H20.056C20.2053 106.838 20.28 106.913 20.28 107.062V110.486C20.28 110.593 20.328 110.646 20.424 110.646H23.832C23.928 110.646 23.976 110.593 23.976 110.486V106.566C23.976 106.417 24.0507 106.342 24.2 106.342H24.776C24.9253 106.342 25 106.417 25 106.566ZM20.376 101.263V104.527C20.376 104.676 20.3013 104.751 20.152 104.751H19.624C19.4747 104.751 19.4 104.676 19.4 104.527V101.263C19.4 101.113 19.4747 101.039 19.624 101.039H20.152C20.3013 101.039 20.376 101.113 20.376 101.263ZM24.008 97.8142V95.1902C24.008 94.2729 23.5547 93.8142 22.648 93.8142H21.608C20.7013 93.8142 20.248 94.3049 20.248 95.2862V97.8142C20.248 97.9209 20.296 97.9742 20.392 97.9742H23.848C23.9547 97.9742 24.008 97.9209 24.008 97.8142ZM19.272 97.8142V95.3502C19.272 94.4116 18.8187 93.9422 17.912 93.9422H17.064C16.1573 93.9422 15.704 94.3956 15.704 95.3022V97.8142C15.704 97.9209 15.7573 97.9742 15.864 97.9742H19.128C19.224 97.9742 19.272 97.9209 19.272 97.8142ZM24.776 99.1422H14.936C14.7867 99.1422 14.712 99.0676 14.712 98.9182V95.1582C14.712 94.4222 14.92 93.8462 15.336 93.4302C15.7413 93.0142 16.312 92.8062 17.048 92.8062H17.928C18.8773 92.8062 19.4907 93.2542 19.768 94.1502C19.8 93.7449 19.9813 93.3982 20.312 93.1102C20.632 92.8222 21.0587 92.6782 21.592 92.6782H22.664C23.4 92.6782 23.976 92.8916 24.392 93.3182C24.7973 93.7342 25 94.3102 25 95.0462V98.9182C25 99.0676 24.9253 99.1422 24.776 99.1422ZM14.712 84.889V84.169C14.712 84.0197 14.7813 83.945 14.92 83.945H22.632C23.3787 83.945 23.96 84.153 24.376 84.569C24.792 84.985 25 85.561 25 86.297V88.073C25 88.809 24.792 89.3903 24.376 89.817C23.96 90.233 23.3787 90.441 22.632 90.441H14.936C14.7867 90.441 14.712 90.3663 14.712 90.217V89.497C14.712 89.3477 14.7867 89.273 14.936 89.273H22.584C23.512 89.273 23.976 88.8303 23.976 87.945V86.441C23.976 85.545 23.512 85.097 22.584 85.097H14.936C14.7867 85.097 14.712 85.0277 14.712 84.889ZM14.936 80.2536H24.776C24.9253 80.2536 25 80.3283 25 80.4776V81.1976C25 81.347 24.9253 81.4216 24.776 81.4216H14.936C14.7867 81.4216 14.712 81.347 14.712 81.1976V80.4776C14.712 80.3283 14.7867 80.2536 14.936 80.2536ZM25 72.2822V77.4182C25 77.5676 24.9253 77.6422 24.776 77.6422H14.936C14.7867 77.6422 14.712 77.5676 14.712 77.4182V76.6982C14.712 76.5489 14.7867 76.4742 14.936 76.4742H23.8C23.896 76.4742 23.944 76.4209 23.944 76.3142V72.2822C23.944 72.1329 24.024 72.0582 24.184 72.0582H24.776C24.9253 72.0582 25 72.1329 25 72.2822ZM25 67.9115V68.6315C25 68.7808 24.9253 68.8555 24.776 68.8555H15.88C15.784 68.8555 15.736 68.9088 15.736 69.0155V71.1915C15.736 71.3515 15.6613 71.4315 15.512 71.4315H14.936C14.7867 71.4315 14.712 71.3515 14.712 71.1915V65.3515C14.712 65.1915 14.7867 65.1115 14.936 65.1115H15.512C15.6613 65.1115 15.736 65.1915 15.736 65.3515V67.5275C15.736 67.6342 15.784 67.6875 15.88 67.6875H24.776C24.9253 67.6875 25 67.7622 25 67.9115ZM22.632 59.6449H22.12C21.9707 59.6449 21.896 59.5702 21.896 59.4209V58.7009C21.896 58.5515 21.9707 58.4769 22.12 58.4769H22.536C23.496 58.4769 23.976 58.0022 23.976 57.0529V55.6449C23.976 54.6955 23.4853 54.2209 22.504 54.2209H21.96C21.192 54.2209 20.6907 54.8555 20.456 56.1249C20.36 56.6582 20.248 57.1915 20.12 57.7249C19.992 58.2582 19.7467 58.7115 19.384 59.0849C19.0107 59.4582 18.504 59.6449 17.864 59.6449H17.08C16.344 59.6449 15.768 59.4369 15.352 59.0209C14.9253 58.5942 14.712 58.0129 14.712 57.2769V55.5009C14.712 54.7755 14.9253 54.1995 15.352 53.7729C15.768 53.3462 16.344 53.1329 17.08 53.1329H17.48C17.64 53.1329 17.72 53.2022 17.72 53.3409V54.0769C17.72 54.2155 17.64 54.2849 17.48 54.2849H17.192C16.2213 54.2849 15.736 54.7595 15.736 55.7089V57.0689C15.736 58.0182 16.2427 58.4929 17.256 58.4929H17.896C18.44 58.4929 18.8133 58.1355 19.016 57.4209C19.1013 57.1009 19.1813 56.7489 19.256 56.3649C19.32 55.9809 19.4107 55.5969 19.528 55.2129C19.6347 54.8182 19.7733 54.4609 19.944 54.1409C20.104 53.8209 20.3547 53.5649 20.696 53.3729C21.0267 53.1702 21.432 53.0689 21.912 53.0689H22.632C23.368 53.0689 23.9493 53.2822 24.376 53.7089C24.792 54.1355 25 54.7115 25 55.4369V57.2769C25 58.0022 24.792 58.5782 24.376 59.0049C23.9493 59.4315 23.368 59.6449 22.632 59.6449ZM14.936 49.4099H24.776C24.9253 49.4099 25 49.4845 25 49.6339V50.3539C25 50.5032 24.9253 50.5779 24.776 50.5779H14.936C14.7867 50.5779 14.712 50.5032 14.712 50.3539V49.6339C14.712 49.4845 14.7867 49.4099 14.936 49.4099ZM25 44.2865V45.0065C25 45.1558 24.9253 45.2305 24.776 45.2305H15.88C15.784 45.2305 15.736 45.2838 15.736 45.3905V47.5665C15.736 47.7265 15.6613 47.8065 15.512 47.8065H14.936C14.7867 47.8065 14.712 47.7265 14.712 47.5665V41.7265C14.712 41.5665 14.7867 41.4865 14.936 41.4865H15.512C15.6613 41.4865 15.736 41.5665 15.736 41.7265V43.9025C15.736 44.0092 15.784 44.0625 15.88 44.0625H24.776C24.9253 44.0625 25 44.1372 25 44.2865ZM25 34.7224V39.7464C25 39.8957 24.9253 39.9704 24.776 39.9704H14.936C14.7867 39.9704 14.712 39.8957 14.712 39.7464V34.7224C14.712 34.573 14.7867 34.4984 14.936 34.4984H15.512C15.6613 34.4984 15.736 34.573 15.736 34.7224V38.6424C15.736 38.749 15.784 38.8024 15.88 38.8024H19.112C19.208 38.8024 19.256 38.749 19.256 38.6424V35.2184C19.256 35.069 19.3307 34.9944 19.48 34.9944H20.056C20.2053 34.9944 20.28 35.069 20.28 35.2184V38.6424C20.28 38.749 20.328 38.8024 20.424 38.8024H23.832C23.928 38.8024 23.976 38.749 23.976 38.6424V34.7224C23.976 34.573 24.0507 34.4984 24.2 34.4984H24.776C24.9253 34.4984 25 34.573 25 34.7224ZM22.632 32.3949H22.12C21.9707 32.3949 21.896 32.3202 21.896 32.1709V31.4509C21.896 31.3015 21.9707 31.2269 22.12 31.2269H22.536C23.496 31.2269 23.976 30.7522 23.976 29.8029V28.3949C23.976 27.4455 23.4853 26.9709 22.504 26.9709H21.96C21.192 26.9709 20.6907 27.6055 20.456 28.8749C20.36 29.4082 20.248 29.9415 20.12 30.4749C19.992 31.0082 19.7467 31.4615 19.384 31.8349C19.0107 32.2082 18.504 32.3949 17.864 32.3949H17.08C16.344 32.3949 15.768 32.1869 15.352 31.7709C14.9253 31.3442 14.712 30.7629 14.712 30.0269V28.2509C14.712 27.5255 14.9253 26.9495 15.352 26.5229C15.768 26.0962 16.344 25.8829 17.08 25.8829H17.48C17.64 25.8829 17.72 25.9522 17.72 26.0909V26.8269C17.72 26.9655 17.64 27.0349 17.48 27.0349H17.192C16.2213 27.0349 15.736 27.5095 15.736 28.4589V29.8189C15.736 30.7682 16.2427 31.2429 17.256 31.2429H17.896C18.44 31.2429 18.8133 30.8855 19.016 30.1709C19.1013 29.8509 19.1813 29.4989 19.256 29.1149C19.32 28.7309 19.4107 28.3469 19.528 27.9629C19.6347 27.5682 19.7733 27.2109 19.944 26.8909C20.104 26.5709 20.3547 26.3149 20.696 26.1229C21.0267 25.9202 21.432 25.8189 21.912 25.8189H22.632C23.368 25.8189 23.9493 26.0322 24.376 26.4589C24.792 26.8855 25 27.4615 25 28.1869V30.0269C25 30.7522 24.792 31.3282 24.376 31.7549C23.9493 32.1815 23.368 32.3949 22.632 32.3949Z" fill="white"/>
<rect width="52" height="42" transform="matrix(0 -1 1 0 0 227)" fill="#48A133"/>
<path d="M32 199.916C32 199.373 31.5599 198.933 31.017 198.933C30.474 198.933 30.0339 199.373 30.0339 199.916C30.0339 200.459 30.474 200.899 31.017 200.899C31.5599 200.899 32 200.459 32 199.916Z" fill="white"/>
<path d="M24.3147 194.264L24.9093 199.808C24.9196 199.912 24.7925 199.963 24.7271 199.881L20.503 194.457C20.2143 194.106 19.7675 193.879 19.2863 193.976C18.5508 194.072 18.0696 194.68 18.1658 195.45L19.0285 201.345C19.0423 201.448 18.9117 201.503 18.8463 201.42L14.385 195.577C13.488 194.426 11.7282 194.33 10.7039 195.385C9.74498 196.344 9.77592 197.884 10.7349 198.843L20.314 208.257C20.6989 208.607 21.2111 208.769 21.7541 208.673C22.6202 208.511 23.1943 207.648 23.0361 206.782L22.0015 201.706C21.9775 201.596 22.1253 201.537 22.1871 201.63L25.7927 207.26C26.2395 207.965 27.0403 208.284 27.8411 208.061C28.8964 207.837 29.5047 206.779 29.2503 205.755L27.1778 197.337C27.1537 197.241 27.2637 197.172 27.3393 197.234L28.9616 198.547C29.4084 198.898 30.0168 198.324 29.6662 197.842L26.1123 193.519C25.473 192.749 24.2219 193.261 24.3182 194.254L24.3147 194.264Z" fill="white"/>
</svg>
